<mxfile host="65bd71144e">
    <diagram id="UXBNorXmxNPbM85uML7R" name="Page-1">
        <mxGraphModel dx="735" dy="342" grid="1" gridSize="10" guides="1" tooltips="1" connect="1" arrows="1" fold="1" page="1" pageScale="1" pageWidth="1169" pageHeight="827" math="0" shadow="0">
            <root>
                <mxCell id="0"/>
                <mxCell id="1" parent="0"/>
                <mxCell id="15" style="edgeStyle=none;html=1;exitX=1;exitY=0.5;exitDx=0;exitDy=0;entryX=0.5;entryY=1;entryDx=0;entryDy=0;fontFamily=Helvetica;fontSize=14;" edge="1" parent="1" source="2" target="5">
                    <mxGeometry relative="1" as="geometry"/>
                </mxCell>
                <mxCell id="2" value="Database&lt;br&gt;-----------------------------&lt;br&gt;&lt;div style=&quot;&quot;&gt;&lt;span style=&quot;background-color: initial;&quot;&gt;+ driver: GraphDatabase.driver&lt;/span&gt;&lt;/div&gt;&lt;div style=&quot;&quot;&gt;&lt;span style=&quot;background-color: initial;&quot;&gt;-----------------------------&lt;/span&gt;&lt;/div&gt;&lt;div style=&quot;&quot;&gt;&lt;span style=&quot;background-color: initial;&quot;&gt;execute_query&lt;/span&gt;&lt;font style=&quot;background-color: initial;&quot;&gt;&lt;span style=&quot;background-color: rgb(30, 30, 30); color: rgb(212, 212, 212); font-family: &amp;quot;Droid Sans Mono&amp;quot;, &amp;quot;monospace&amp;quot;, monospace;&quot;&gt;(&lt;/span&gt;&lt;span style=&quot;color: rgb(156, 220, 254);&quot;&gt;self&lt;/span&gt;&lt;span style=&quot;background-color: rgb(30, 30, 30); color: rgb(212, 212, 212);&quot;&gt;, &lt;/span&gt;&lt;span style=&quot;color: rgb(156, 220, 254);&quot;&gt;query&lt;/span&gt;&lt;span style=&quot;background-color: rgb(30, 30, 30); color: rgb(212, 212, 212);&quot;&gt;, &lt;/span&gt;&lt;span style=&quot;color: rgb(156, 220, 254);&quot;&gt;parameters&lt;/span&gt;&lt;span style=&quot;background-color: rgb(30, 30, 30); color: rgb(212, 212, 212); font-family: &amp;quot;Droid Sans Mono&amp;quot;, &amp;quot;monospace&amp;quot;, monospace;&quot;&gt;)&lt;/span&gt;&lt;/font&gt;&lt;/div&gt;&lt;div style=&quot;&quot;&gt;&lt;span style=&quot;background-color: initial;&quot;&gt;close(self)&lt;/span&gt;&lt;/div&gt;&lt;div style=&quot;&quot;&gt;&lt;span style=&quot;background-color: initial;&quot;&gt;drop_all(self)&lt;/span&gt;&lt;/div&gt;" style="rounded=0;whiteSpace=wrap;html=1;" vertex="1" parent="1">
                    <mxGeometry x="50" y="230" width="180" height="150" as="geometry"/>
                </mxCell>
                <mxCell id="3" value="&lt;font style=&quot;&quot;&gt;&lt;font style=&quot;font-size: 14px;&quot;&gt;&lt;b&gt;Queries&lt;/b&gt;&lt;/font&gt;&lt;br&gt;&lt;span style=&quot;font-size: 10px;&quot;&gt;-----------------------------&lt;/span&gt;&lt;br&gt;&lt;/font&gt;&lt;div&gt;&lt;span style=&quot;background-color: initial;&quot;&gt;&lt;font size=&quot;3&quot; style=&quot;&quot;&gt;+ db: Database&lt;/font&gt;&lt;/span&gt;&lt;/div&gt;&lt;div&gt;&lt;span style=&quot;background-color: initial;&quot;&gt;&lt;font size=&quot;3&quot; style=&quot;&quot;&gt;-----------------------------&lt;/font&gt;&lt;/span&gt;&lt;/div&gt;&lt;div&gt;&lt;span style=&quot;background-color: initial;&quot;&gt;&lt;font size=&quot;3&quot; style=&quot;&quot;&gt;&lt;div style=&quot;&quot;&gt;init(database)&lt;/div&gt;&lt;div style=&quot;&quot;&gt;create_case(caseNumber, description, status)&lt;/div&gt;&lt;div style=&quot;&quot;&gt;create_suspect(name, alias, dateOfBirth, physicalDescription)&lt;/div&gt;&lt;div style=&quot;&quot;&gt;create_victim(victim_id, name, age, contactInformation)&lt;/div&gt;&lt;div style=&quot;&quot;&gt;create_investigator(badgeNumber, name, contactInformation, expertise)&lt;/div&gt;&lt;div style=&quot;&quot;&gt;create_evidence(evidenceNumber, description, type, timestamp)&lt;/div&gt;&lt;div style=&quot;&quot;&gt;assigned_to(caseNumber, badgeNumber)&lt;/div&gt;&lt;div style=&quot;&quot;&gt;involved_in(caseNumber, suspectAlias)&lt;/div&gt;&lt;div style=&quot;&quot;&gt;affected(caseNumber, victim_id)&lt;/div&gt;&lt;div style=&quot;&quot;&gt;related_to(caseNumber, evidenceNumber)&lt;/div&gt;&lt;div style=&quot;&quot;&gt;get_cases_all()&lt;/div&gt;&lt;div style=&quot;&quot;&gt;get_case(caseNumber)&lt;/div&gt;&lt;div style=&quot;&quot;&gt;case(caseNumber)&lt;/div&gt;&lt;div style=&quot;&quot;&gt;get_suspect(suspect_alias)&lt;/div&gt;&lt;div style=&quot;&quot;&gt;get_victim(victim_id)&lt;/div&gt;&lt;div style=&quot;&quot;&gt;get_investigator(badgeNumber)&lt;/div&gt;&lt;div style=&quot;&quot;&gt;get_evidence(evidenceNumber)&lt;/div&gt;&lt;div style=&quot;&quot;&gt;update_case(caseNumber, status)&lt;/div&gt;&lt;div style=&quot;&quot;&gt;delete_case(caseNumber)&lt;/div&gt;&lt;div style=&quot;&quot;&gt;delete_investigator(badgeNumber)&lt;/div&gt;&lt;div style=&quot;&quot;&gt;delete_evidence(evidenceNumber)&lt;/div&gt;&lt;div style=&quot;&quot;&gt;delete_suspect(alias)&lt;/div&gt;&lt;div style=&quot;&quot;&gt;delete_victim(id)&lt;/div&gt;&lt;/font&gt;&lt;/span&gt;&lt;/div&gt;" style="rounded=0;whiteSpace=wrap;html=1;shadow=0;" vertex="1" parent="1">
                    <mxGeometry x="440" y="15" width="540" height="580" as="geometry"/>
                </mxCell>
                <mxCell id="4" value="App" style="rounded=0;whiteSpace=wrap;html=1;" vertex="1" parent="1">
                    <mxGeometry x="90" y="60" width="120" height="60" as="geometry"/>
                </mxCell>
                <mxCell id="16" style="edgeStyle=none;html=1;exitX=0.5;exitY=0;exitDx=0;exitDy=0;entryX=0;entryY=0.5;entryDx=0;entryDy=0;fontFamily=Helvetica;fontSize=14;" edge="1" parent="1" source="5" target="3">
                    <mxGeometry relative="1" as="geometry"/>
                </mxCell>
                <mxCell id="5" value="" style="rhombus;whiteSpace=wrap;html=1;rotation=90;" vertex="1" parent="1">
                    <mxGeometry x="320" y="285" width="20" height="40" as="geometry"/>
                </mxCell>
            </root>
        </mxGraphModel>
    </diagram>
</mxfile>